<?xml version="1.0" encoding="iso-8859-1"?>
<!-- Generator: Adobe Illustrator 19.0.0, SVG Export Plug-In . SVG Version: 6.00 Build 0)  -->
<svg version="1.1" id="Capa_1" xmlns="http://www.w3.org/2000/svg" xmlns:xlink="http://www.w3.org/1999/xlink" x="0px" y="0px"
	 viewBox="0 0 512.002 512.002" style="enable-background:new 0 0 512.002 512.002;" xml:space="preserve">
<path style="fill:#5C913B;" d="M275.101,131.388c-3.998-47.737,31.324-68.134,31.324-68.134
	c-46.178,1.631-70.645,40.779-70.645,40.779c-10.855-18.751,13.656-57.914,31.309-68.119c-46.164,1.631-52.977,30.603-52.977,30.603
	C192.431,28.971,199.259,0,199.259,0c-16.182,9.354-25.507,30.502-30.906,50.711l-33.475-38.557
	c-3.32,15.1,2.252,45.846,8.257,71.627c-44.084-25.854-85.196-2.18-85.196-2.18c57.019,17.134,78.672,54.666,78.672,54.666
	s-56.99-17.134-81.486,22.042c37.474-1.328,64.958,7.203,84.533,17.74c-16.788,4.171-45.399-3.407-62.865,19.791
	c0,0,46.164-1.631,55.59,15.214c-31.353,8.878-51.591,32.508-51.591,32.508c63.832-11.808,131.692,24.078,131.692,24.078
	l88.314-50.985c-14.84-66.502,38.137-97.105,38.137-97.105C299.598,92.227,275.101,131.388,275.101,131.388"/>
<path style="fill:#FFAC33;" d="M438.499,322.614c35.915,62.201,17.582,140.021-40.952,173.814s-135.098,10.769-170.999-51.418
	l-22.937-39.74c-35.929-62.215-17.582-140.006,40.952-173.799c58.534-33.807,135.098-10.783,170.999,51.418L438.499,322.614z"/>
<path style="fill:#FFCC4D;" d="M411.897,374.276l-28.163-11.952l11.952-28.148l28.163,11.938L411.897,374.276z M387.993,430.586
	l-28.163-11.938l11.966-28.177l28.149,11.953C399.946,402.424,387.993,430.586,387.993,430.586z M364.075,486.942l-28.163-11.953
	l11.952-28.177l28.177,11.966L364.075,486.942z M303.49,394.73l11.952-28.177l28.177,11.966l-11.966,28.177L303.49,394.73z
	 M307.734,463.008l-28.149-11.952l11.953-28.149l28.149,11.966C319.687,434.873,307.734,463.008,307.734,463.008z M247.164,370.825
	l11.966-28.163l28.163,11.938l-11.966,28.177C275.327,382.777,247.164,370.825,247.164,370.825z M251.422,439.103l-28.163-11.938
	l11.952-28.163l28.163,11.953L251.422,439.103z M190.853,346.921l11.953-28.177l28.163,11.953l-11.953,28.192
	C219.015,358.887,190.853,346.921,190.853,346.921z M226.709,262.446l28.163,11.953l-11.966,28.134l-28.149-11.953L226.709,262.446z
	 M283.035,286.336l28.149,11.953l-11.953,28.163l-28.149-11.952L283.035,286.336z M306.94,230.01l28.177,11.966l-11.966,28.163
	l-28.177-11.953L306.94,230.01z M367.524,322.207l-11.952,28.148l-28.177-11.938l11.966-28.177L367.524,322.207z M363.281,253.915
	l28.148,11.966l-11.952,28.149l-28.163-11.952C351.313,282.077,363.281,253.915,363.281,253.915z M452.965,358.469
	c-3.017-12.226-7.795-24.308-14.464-35.856l-2.699-4.663v0.015l-28.163-11.966l9.007-21.22l-1.083-1.891
	c-29.231-50.667-85.456-75.308-136.932-64.468l-11.822,27.803l-27.195-11.533c-47.347,30.631-65.94,91.201-47.087,146.199
	l14.522,6.164l-5.789,13.656c0.794,1.516,1.472,3.06,2.338,4.547l22.952,39.74c9.888,17.149,22.937,31.195,37.777,42.006
	l3.305-7.766l28.163,11.953l-4.677,11.014c9.599,4.013,19.588,6.712,29.736,8.272l3.104-7.318l20.253,8.574
	c16.528-0.678,32.927-4.851,48.257-12.732l-0.231-0.101l11.953-28.163l17.149,7.275c7.55-7.535,14.046-15.936,19.256-25.074
	l-24.439-10.378l11.952-28.177l24.063,10.205c2.758-10.105,4.345-20.585,4.562-31.281l-16.673-7.073l11.952-28.163
	C452.013,358.065,452.965,358.469,452.965,358.469z"/>
<g>
</g>
<g>
</g>
<g>
</g>
<g>
</g>
<g>
</g>
<g>
</g>
<g>
</g>
<g>
</g>
<g>
</g>
<g>
</g>
<g>
</g>
<g>
</g>
<g>
</g>
<g>
</g>
<g>
</g>
</svg>
