<svg xmlns="http://www.w3.org/2000/svg" viewBox="0 0 496 496"><path d="M496 369.6c0 27.2-21.6 46.4-48 46.4H48c-26.4 0-48-19.2-48-46.4V126.4C0 99.2 21.6 80 48 80h400c26.4 0 48 19.2 48 46.4v243.2z" fill="#29337a"/><path d="M48 80h400c26.4 0 48 19.2 48 46.4v243.2c0 27.2-25.6 46.4-52 46.4" fill="#1b265b"/><path d="M48 80h400c26.4 0 48 19.2 48 46.4V216m0 152.8c0 27.2-21.6 47.2-48 47.2H48c-26.4 0-48-20.8-48-48" fill="#111d49"/><path fill="#fff" d="M272 248L442.4 80h-48L248 226.4 101.6 80h-48L224 248 53.6 416h48L248 269.6 394.4 416h48z"/><g fill="#d9eced"><path d="M102.4 368l-48.8 48h48l48-48zm244 0l48 48h48l-48.8-48z"/><path d="M411.2 386.4L272 249.6 442.4 80h-48L248 226.4 101.6 80h-48l32 30.4z"/></g><path fill="#fff" d="M496 216H280V80h-64v136H0v64h216v136h64V280h216z"/><path d="M216 368h64v48h-64zm64-288h-64v136h-5.6l75.2 64H496v-64H280z" fill="#d9eced"/><path fill="#e51d35" d="M496 232H264h9.6L432.8 80h-16L264 232V80h-32v152L77.6 80H63.2L216 232H0v32h216.8L67.2 416h14.4L232 264v152h32V265.6L418.4 416h14.4L280 264h216z"/><path d="M232 368h32v48h-32zm-117.6 0l-47.2 48h14.4l48-48zm255.2 0l48.8 48h14.4L384 368zm-91.2-136L432.8 80h-16L264 232V80h-32v152L77.6 80H63.2l88 87.2 192 161.6L280 264h216v-32H264z" fill="#af0026"/></svg>